<svg width="144" height="144" viewBox="0 0 144 144" fill="none" xmlns="http://www.w3.org/2000/svg">
<g id="close 1" clip-path="url(#clip0_9319_51)">
<path id="Vector" d="M25.0093 8.17367C20.5416 3.6594 13.2604 3.62162 8.74608 8.08929C4.23181 12.557 4.19402 19.8383 8.66169 24.3525L118.396 135.232C122.864 139.746 130.145 139.784 134.66 135.316C139.174 130.849 139.212 123.567 134.744 119.053L25.0093 8.17367Z" fill="black"/>
<path id="Vector_2" d="M135.232 25.0093C139.746 20.5417 139.784 13.2604 135.316 8.74608C130.849 4.23181 123.568 4.19402 119.053 8.66169L8.17369 118.396C3.65942 122.864 3.62164 130.145 8.08931 134.66C12.557 139.174 19.8383 139.212 24.3525 134.744L135.232 25.0093Z" fill="black"/>
</g>
<defs>
<clipPath id="clip0_9319_51">
<rect width="144" height="144" fill="white"/>
</clipPath>
</defs>
</svg>
